#define bitgen_width 32
#define bitgen_height 32
static unsigned char bitgen_bits[] = {
   0x00, 0x00, 0x00, 0x00, 0x00, 0x00, 0x00, 0x00, 0x00, 0x00, 0x00, 0x00,
   0x00, 0x00, 0x00, 0x00, 0x00, 0x00, 0x00, 0x00, 0xc8, 0x27, 0x00, 0x00,
   0x48, 0x24, 0x40, 0x00, 0x48, 0x24, 0x80, 0x00, 0x48, 0x24, 0x00, 0x01,
   0x48, 0x24, 0xfc, 0x03, 0x48, 0x24, 0x00, 0x01, 0x48, 0x24, 0x80, 0x00,
   0x48, 0x24, 0x40, 0x00, 0xc8, 0x27, 0x00, 0x00, 0x00, 0x00, 0x00, 0x00,
   0x00, 0x00, 0x00, 0x00, 0x00, 0x00, 0x00, 0x00, 0x00, 0x00, 0x00, 0x00,
   0xc0, 0x17, 0x14, 0x00, 0x40, 0x14, 0x14, 0x00, 0x40, 0x14, 0x14, 0x00,
   0xc0, 0x17, 0x14, 0x00, 0x40, 0x10, 0x14, 0x00, 0x40, 0x10, 0x14, 0x00,
   0x40, 0x90, 0x14, 0x00, 0x40, 0x50, 0x15, 0x00, 0x40, 0x70, 0xf7, 0x01,
   0x00, 0x00, 0x00, 0x00, 0x00, 0x00, 0x00, 0x00, 0x00, 0x00, 0x00, 0x00,
   0x00, 0x00, 0x00, 0x00, 0x00, 0x00, 0x00, 0x00};
